# xmcd
#
# Track frame offsets:
#	150
#	16162
#	31120
#	45525
#	57460
#	62826
#	92677
#	110010
#	127892
#	131758
#	156064
#	172302
#
# Disc length: 2471 seconds
#
# Revision: 0
# Processed by: cddbd v1.5.2PL0 Copyright (c) Steve Scherf et al.
# Submitted via: EZCDAudioConverter 1.3.4.1
#
DISCID=9f09a50c
DTITLE=Cass McCombs - Big Wheel And Others 1/2
DYEAR=1900
DGENRE=
TTITLE0=It Means A Lot To Know You Care
TTITLE1=Dealing
TTITLE2=Sooner Cheat Death Than Fool Love
TTITLE3=Satan Is My Toy
TTITLE4=Sean (2)
TTITLE5=Home On The Range
TTITLE6=Brighter!
TTITLE7=Untitled Spain Song
TTITLE8=Sean (3)
TTITLE9=Honesty Is No Excuse
TTITLE10=Aeon Of Aquarius Blues
TTITLE11=Unearthed
EXTD=
EXTT0=
EXTT1=
EXTT2=
EXTT3=
EXTT4=
EXTT5=
EXTT6=
EXTT7=
EXTT8=
EXTT9=
EXTT10=
EXTT11=
PLAYORDER=
